<svg width="1024" height="1024" viewBox="0 0 1024 1024" fill="none" xmlns="http://www.w3.org/2000/svg">
<rect width="1024" height="1024" fill="white"/>
<g filter="url(#filter0_d_1_69)">
<rect x="87" y="122" width="850" height="850" rx="80" fill="url(#paint0_linear_1_69)"/>
</g>
<rect x="235" y="22" width="120" height="200" rx="60" fill="url(#paint1_linear_1_69)"/>
<rect x="668" y="22" width="120" height="200" rx="60" fill="url(#paint2_linear_1_69)"/>
<g filter="url(#filter1_d_1_69)">
<path d="M161 567C161 555.954 169.954 547 181 547H842C853.046 547 862 555.954 862 567V851C862 884.137 835.137 911 802 911H221C187.863 911 161 884.137 161 851V567Z" fill="white"/>
</g>
<g filter="url(#filter2_d_1_69)">
<rect x="437" y="589" width="150" height="100" rx="20" fill="url(#paint3_linear_1_69)"/>
</g>
<g filter="url(#filter3_d_1_69)">
<rect x="212" y="589" width="150" height="100" rx="20" fill="url(#paint4_linear_1_69)"/>
</g>
<g filter="url(#filter4_d_1_69)">
<rect x="662" y="589" width="150" height="100" rx="20" fill="url(#paint5_linear_1_69)"/>
</g>
<g filter="url(#filter5_d_1_69)">
<rect x="662" y="745" width="150" height="100" rx="20" fill="url(#paint6_linear_1_69)"/>
</g>
<g filter="url(#filter6_d_1_69)">
<rect x="437" y="745" width="150" height="100" rx="20" fill="url(#paint7_linear_1_69)"/>
</g>
<g filter="url(#filter7_d_1_69)">
<rect x="212" y="745" width="150" height="100" rx="20" fill="url(#paint8_linear_1_69)"/>
</g>
<g filter="url(#filter8_d_1_69)">
<rect x="589" y="389.041" width="50" height="100" fill="#FDD35F"/>
<rect x="383" y="389.041" width="50" height="100" fill="#FDD35F"/>
<rect x="390" y="369.041" width="35" height="20" fill="#FDD35F"/>
<path d="M395 349.041H420V369.041H395V349.041Z" fill="#FDD35F"/>
<rect x="596" y="369.041" width="35" height="20" fill="#FDD35F"/>
<path d="M601 349.041H626V369.041H601V349.041Z" fill="#FDD35F"/>
<path d="M408 308.041L416.66 349.291H399.34L408 308.041Z" fill="#FDD35F"/>
<path d="M614 308.041L622.66 349.291H605.34L614 308.041Z" fill="#FDD35F"/>
<path d="M511.5 328.041L592.473 492.291H430.527L511.5 328.041Z" fill="#FDD35F"/>
<path d="M424.934 426.577L481.573 398.333L433.191 489.327L424.934 426.577Z" fill="#FDD35F"/>
<path d="M597.198 426.577L540.559 398.333L588.941 489.327L597.198 426.577Z" fill="#FDD35F"/>
<path d="M833 504.041C833 513.43 689.06 504.041 511.5 504.041C333.94 504.041 190 513.43 190 504.041C190 494.653 333.94 487.041 511.5 487.041C689.06 487.041 833 494.653 833 504.041Z" fill="#FDD35F"/>
<path d="M482 354.041H541L544 394.041H479L482 354.041Z" fill="#FDD35F"/>
<path d="M496 329.041H527L529 354.041H494L496 329.041Z" fill="#FDD35F"/>
<ellipse cx="511.5" cy="322.041" rx="22.5" ry="10" fill="#FDD35F"/>
<rect x="498" y="245.041" width="30" height="80" rx="15" fill="#FDD35F"/>
<rect x="521" y="263.204" width="9" height="37.9899" rx="4.5" transform="rotate(-35 521 263.204)" fill="#FDD35F"/>
<rect x="466" y="244.924" width="10.0031" height="39.3145" rx="5.00154" transform="rotate(-52 466 244.924)" fill="#FDD35F"/>
<path d="M391.634 203.854C393.861 197.828 401.133 195.463 406.479 199.027L412.718 203.187C413.571 203.755 414.476 204.24 415.422 204.633L488.853 235.198C491.516 236.306 492.836 239.314 491.85 242.024C490.843 244.791 487.804 246.239 485.021 245.279L408.695 218.953C407.899 218.679 407.084 218.469 406.255 218.323L399.248 217.097C393.133 216.027 389.482 209.677 391.634 203.854Z" fill="#FDD35F"/>
<ellipse cx="512.5" cy="231.541" rx="22.5" ry="20.5" fill="#FDD35F"/>
</g>
<defs>
<filter id="filter0_d_1_69" x="83" y="122" width="858" height="858" filterUnits="userSpaceOnUse" color-interpolation-filters="sRGB">
<feFlood flood-opacity="0" result="BackgroundImageFix"/>
<feColorMatrix in="SourceAlpha" type="matrix" values="0 0 0 0 0 0 0 0 0 0 0 0 0 0 0 0 0 0 127 0" result="hardAlpha"/>
<feOffset dy="4"/>
<feGaussianBlur stdDeviation="2"/>
<feComposite in2="hardAlpha" operator="out"/>
<feColorMatrix type="matrix" values="0 0 0 0 0 0 0 0 0 0 0 0 0 0 0 0 0 0 0.25 0"/>
<feBlend mode="normal" in2="BackgroundImageFix" result="effect1_dropShadow_1_69"/>
<feBlend mode="normal" in="SourceGraphic" in2="effect1_dropShadow_1_69" result="shape"/>
</filter>
<filter id="filter1_d_1_69" x="157" y="547" width="709" height="372" filterUnits="userSpaceOnUse" color-interpolation-filters="sRGB">
<feFlood flood-opacity="0" result="BackgroundImageFix"/>
<feColorMatrix in="SourceAlpha" type="matrix" values="0 0 0 0 0 0 0 0 0 0 0 0 0 0 0 0 0 0 127 0" result="hardAlpha"/>
<feOffset dy="4"/>
<feGaussianBlur stdDeviation="2"/>
<feComposite in2="hardAlpha" operator="out"/>
<feColorMatrix type="matrix" values="0 0 0 0 0 0 0 0 0 0 0 0 0 0 0 0 0 0 0.25 0"/>
<feBlend mode="normal" in2="BackgroundImageFix" result="effect1_dropShadow_1_69"/>
<feBlend mode="normal" in="SourceGraphic" in2="effect1_dropShadow_1_69" result="shape"/>
</filter>
<filter id="filter2_d_1_69" x="433" y="589" width="158" height="108" filterUnits="userSpaceOnUse" color-interpolation-filters="sRGB">
<feFlood flood-opacity="0" result="BackgroundImageFix"/>
<feColorMatrix in="SourceAlpha" type="matrix" values="0 0 0 0 0 0 0 0 0 0 0 0 0 0 0 0 0 0 127 0" result="hardAlpha"/>
<feOffset dy="4"/>
<feGaussianBlur stdDeviation="2"/>
<feComposite in2="hardAlpha" operator="out"/>
<feColorMatrix type="matrix" values="0 0 0 0 0 0 0 0 0 0 0 0 0 0 0 0 0 0 0.25 0"/>
<feBlend mode="normal" in2="BackgroundImageFix" result="effect1_dropShadow_1_69"/>
<feBlend mode="normal" in="SourceGraphic" in2="effect1_dropShadow_1_69" result="shape"/>
</filter>
<filter id="filter3_d_1_69" x="208" y="589" width="158" height="108" filterUnits="userSpaceOnUse" color-interpolation-filters="sRGB">
<feFlood flood-opacity="0" result="BackgroundImageFix"/>
<feColorMatrix in="SourceAlpha" type="matrix" values="0 0 0 0 0 0 0 0 0 0 0 0 0 0 0 0 0 0 127 0" result="hardAlpha"/>
<feOffset dy="4"/>
<feGaussianBlur stdDeviation="2"/>
<feComposite in2="hardAlpha" operator="out"/>
<feColorMatrix type="matrix" values="0 0 0 0 0 0 0 0 0 0 0 0 0 0 0 0 0 0 0.25 0"/>
<feBlend mode="normal" in2="BackgroundImageFix" result="effect1_dropShadow_1_69"/>
<feBlend mode="normal" in="SourceGraphic" in2="effect1_dropShadow_1_69" result="shape"/>
</filter>
<filter id="filter4_d_1_69" x="658" y="589" width="158" height="108" filterUnits="userSpaceOnUse" color-interpolation-filters="sRGB">
<feFlood flood-opacity="0" result="BackgroundImageFix"/>
<feColorMatrix in="SourceAlpha" type="matrix" values="0 0 0 0 0 0 0 0 0 0 0 0 0 0 0 0 0 0 127 0" result="hardAlpha"/>
<feOffset dy="4"/>
<feGaussianBlur stdDeviation="2"/>
<feComposite in2="hardAlpha" operator="out"/>
<feColorMatrix type="matrix" values="0 0 0 0 0 0 0 0 0 0 0 0 0 0 0 0 0 0 0.25 0"/>
<feBlend mode="normal" in2="BackgroundImageFix" result="effect1_dropShadow_1_69"/>
<feBlend mode="normal" in="SourceGraphic" in2="effect1_dropShadow_1_69" result="shape"/>
</filter>
<filter id="filter5_d_1_69" x="658" y="745" width="158" height="108" filterUnits="userSpaceOnUse" color-interpolation-filters="sRGB">
<feFlood flood-opacity="0" result="BackgroundImageFix"/>
<feColorMatrix in="SourceAlpha" type="matrix" values="0 0 0 0 0 0 0 0 0 0 0 0 0 0 0 0 0 0 127 0" result="hardAlpha"/>
<feOffset dy="4"/>
<feGaussianBlur stdDeviation="2"/>
<feComposite in2="hardAlpha" operator="out"/>
<feColorMatrix type="matrix" values="0 0 0 0 0 0 0 0 0 0 0 0 0 0 0 0 0 0 0.25 0"/>
<feBlend mode="normal" in2="BackgroundImageFix" result="effect1_dropShadow_1_69"/>
<feBlend mode="normal" in="SourceGraphic" in2="effect1_dropShadow_1_69" result="shape"/>
</filter>
<filter id="filter6_d_1_69" x="433" y="745" width="158" height="108" filterUnits="userSpaceOnUse" color-interpolation-filters="sRGB">
<feFlood flood-opacity="0" result="BackgroundImageFix"/>
<feColorMatrix in="SourceAlpha" type="matrix" values="0 0 0 0 0 0 0 0 0 0 0 0 0 0 0 0 0 0 127 0" result="hardAlpha"/>
<feOffset dy="4"/>
<feGaussianBlur stdDeviation="2"/>
<feComposite in2="hardAlpha" operator="out"/>
<feColorMatrix type="matrix" values="0 0 0 0 0 0 0 0 0 0 0 0 0 0 0 0 0 0 0.25 0"/>
<feBlend mode="normal" in2="BackgroundImageFix" result="effect1_dropShadow_1_69"/>
<feBlend mode="normal" in="SourceGraphic" in2="effect1_dropShadow_1_69" result="shape"/>
</filter>
<filter id="filter7_d_1_69" x="208" y="745" width="158" height="108" filterUnits="userSpaceOnUse" color-interpolation-filters="sRGB">
<feFlood flood-opacity="0" result="BackgroundImageFix"/>
<feColorMatrix in="SourceAlpha" type="matrix" values="0 0 0 0 0 0 0 0 0 0 0 0 0 0 0 0 0 0 127 0" result="hardAlpha"/>
<feOffset dy="4"/>
<feGaussianBlur stdDeviation="2"/>
<feComposite in2="hardAlpha" operator="out"/>
<feColorMatrix type="matrix" values="0 0 0 0 0 0 0 0 0 0 0 0 0 0 0 0 0 0 0.25 0"/>
<feBlend mode="normal" in2="BackgroundImageFix" result="effect1_dropShadow_1_69"/>
<feBlend mode="normal" in="SourceGraphic" in2="effect1_dropShadow_1_69" result="shape"/>
</filter>
<filter id="filter8_d_1_69" x="186" y="197.353" width="651" height="318.861" filterUnits="userSpaceOnUse" color-interpolation-filters="sRGB">
<feFlood flood-opacity="0" result="BackgroundImageFix"/>
<feColorMatrix in="SourceAlpha" type="matrix" values="0 0 0 0 0 0 0 0 0 0 0 0 0 0 0 0 0 0 127 0" result="hardAlpha"/>
<feOffset dy="4"/>
<feGaussianBlur stdDeviation="2"/>
<feComposite in2="hardAlpha" operator="out"/>
<feColorMatrix type="matrix" values="0 0 0 0 0 0 0 0 0 0 0 0 0 0 0 0 0 0 0.25 0"/>
<feBlend mode="normal" in2="BackgroundImageFix" result="effect1_dropShadow_1_69"/>
<feBlend mode="normal" in="SourceGraphic" in2="effect1_dropShadow_1_69" result="shape"/>
</filter>
<linearGradient id="paint0_linear_1_69" x1="738.5" y1="203" x2="290" y2="915" gradientUnits="userSpaceOnUse">
<stop stop-color="#2973B0"/>
<stop offset="1" stop-color="#0F3D63"/>
</linearGradient>
<linearGradient id="paint1_linear_1_69" x1="327" y1="44" x2="266" y2="187.5" gradientUnits="userSpaceOnUse">
<stop stop-color="#B7B7B7"/>
<stop offset="1" stop-color="#727272"/>
</linearGradient>
<linearGradient id="paint2_linear_1_69" x1="762.5" y1="65" x2="703" y2="198" gradientUnits="userSpaceOnUse">
<stop stop-color="#B7B7B7"/>
<stop offset="1" stop-color="#727272"/>
</linearGradient>
<linearGradient id="paint3_linear_1_69" x1="551" y1="599.5" x2="480.5" y2="680" gradientUnits="userSpaceOnUse">
<stop stop-color="#2973B0"/>
<stop offset="1" stop-color="#0F5187"/>
</linearGradient>
<linearGradient id="paint4_linear_1_69" x1="326" y1="599.5" x2="255.5" y2="680" gradientUnits="userSpaceOnUse">
<stop stop-color="#2973B0"/>
<stop offset="1" stop-color="#0F5187"/>
</linearGradient>
<linearGradient id="paint5_linear_1_69" x1="776" y1="599.5" x2="705.5" y2="680" gradientUnits="userSpaceOnUse">
<stop stop-color="#2973B0"/>
<stop offset="1" stop-color="#0F5187"/>
</linearGradient>
<linearGradient id="paint6_linear_1_69" x1="776" y1="755.5" x2="705.5" y2="836" gradientUnits="userSpaceOnUse">
<stop stop-color="#2973B0"/>
<stop offset="1" stop-color="#0F5187"/>
</linearGradient>
<linearGradient id="paint7_linear_1_69" x1="551" y1="755.5" x2="480.5" y2="836" gradientUnits="userSpaceOnUse">
<stop stop-color="#2973B0"/>
<stop offset="1" stop-color="#0F5187"/>
</linearGradient>
<linearGradient id="paint8_linear_1_69" x1="326" y1="755.5" x2="255.5" y2="836" gradientUnits="userSpaceOnUse">
<stop stop-color="#2973B0"/>
<stop offset="1" stop-color="#0F5187"/>
</linearGradient>
</defs>
</svg>
